# AST/ASF file generated using VICON BodyLanguage
# -----------------------------------------------
:version 1.10
:name VICON
:units
  mass 1.0
  length 0.45
  angle deg
:documentation
   .ast/.asf automatically generated from VICON data using
   VICON BodyBuilder and BodyLanguage model FoxedUp or BRILLIANT.MOD
:root
   order TX TY TZ RX RY RZ
   axis XYZ
   position 0 0 0  
   orientation 0 0 0 
:bonedata
  begin
     id 1 
     name lhipjoint
     direction 0.440178 -0.822639 0.359871 
     length 2.53113 
     axis 0 0 0  XYZ
  end
  begin
     id 2 
     name lfemur
     direction 0.34202 -0.939693 0  
     length 7.88132  
     axis 0 0 20  XYZ
    dof rx ry rz
    limits (-160.0 20.0)
           (-70.0 70.0)
           (-60.0 70.0)
  end
  begin
     id 3 
     name ltibia
     direction 0.34202 -0.939693 0   
     length 8.43783   
     axis 0 0 20   XYZ
    dof rx
    limits (-10.0 170.0)
  end
  begin
     id 4 
     name lfoot
     direction 0.0886351 -0.243523 0.965837   
     length 2.63414   
     axis -90 7.62852e-016 20   XYZ
    dof rx rz
    limits (-45.0 90.0)
           (-70.0 20.0)
  end
  begin
     id 5 
     name ltoes
     direction 1.53703e-011 -4.21717e-011 1   
     length 1.31427   
     axis -90 7.62852e-016 20   XYZ
    dof rx
    limits (-90.0 20.0)
  end
  begin
     id 6 
     name rhipjoint
     direction -0.399779 -0.839773 0.367367   
     length 2.47948  
     axis 0 0 0  XYZ 
  end
  begin
     id 7 
     name rfemur
     direction -0.34202 -0.939693 0   
     length 7.74806   
     axis 0 0 -20   XYZ
    dof rx ry rz
    limits (-160.0 20.0)
           (-70.0 70.0)
           (-70.0 60.0)
  end
  begin
     id 8 
     name rtibia
     direction -0.34202 -0.939693 0   
     length 8.74432   
     axis 0 0 -20   XYZ
    dof rx
    limits (-10.0 170.0)
 end
 begin
     id 9 
     name rfoot
     direction -0.108514 -0.298139 0.948334   
     length 2.66102  
     axis -90 -7.62852e-016 -20   XYZ
    dof rx rz
    limits (-45.0 90.0)
           (-20.0 70.0)
  end
  begin
     id 10 
     name rtoes
     direction -1.53392e-011 -4.22077e-011 1   
     length 1.31983   
     axis -90 -7.62852e-016 -20   XYZ
    dof rx
    limits (-90.0 20.0)
  end
  begin
     id 11 
     name lowerback
     direction 0.0113257 0.999866 0.0118602   
     length 2.58694   
     axis 0 0 0   XYZ
    dof rx ry rz
    limits (-20.0 45.0)
           (-30.0 30.0)
           (-30.0 30.0)
  end
  begin
     id 12 
     name upperback
     direction -0.0164747 0.995193 -0.0965375   
     length 2.52368   
     axis 0 0 0   XYZ
    dof rx ry rz
    limits (-20.0 45.0)
           (-30.0 30.0)
           (-30.0 30.0)
  end
  begin
     id 13 
     name thorax
     direction -0.0194301 0.99433 -0.104552   
     length 2.56099   
     axis 0 0 0   XYZ
    dof rx ry rz
    limits (-20.0 45.0)
           (-30.0 30.0)
           (-30.0 30.0)
  end
  begin
     id 14 
     name lowerneck
     direction 0.0148543 0.995587 -0.092657   
     length 1.71582   
     axis 0 0 0   XYZ
    dof rx ry rz
    limits (-20.0 45.0)
           (-30.0 30.0)
           (-30.0 30.0)
  end
  begin
     id 15 
     name upperneck
     direction -0.0135467 0.993656 -0.111639   
     length 1.68937   
     axis 0 0 0   XYZ
    dof rx ry rz
    limits (-20.0 45.0)
           (-30.0 30.0)
           (-30.0 30.0)
  end
  begin
     id 16
     name head
     direction -0.00615349 0.999547 -0.029448  
     length 1.7462  
     axis 0 0 0   XYZ
    dof rx ry rz
    limits (-20.0 45.0)
           (-30.0 30.0)
           (-30.0 30.0)
  end
  begin
     id 17 
     name lclavicle
     direction 0.988267 0.149885 0.0293713  
     length 4.47222  
     axis 0 0 0   XYZ
    dof ry rz
    limits (-20.0 10.0)
           (0.0 20.0)
  end
  begin
     id 18 
     name lhumerus
     direction 1 -4.48986e-011 -1.14833e-027   
     length 5.37148   
     axis 180 -30 -90   XYZ
    dof rx ry rz
    limits (-60.0 90.0)
           (-90.0 90.0)
           (-90.0 90.0)
  end
  begin
     id 19
     name lradius
     direction 0.999998 0.00170963 -0.000987055   
     length 3.94212   
     axis 180 -30 -90   XYZ
    dof rx
    limits (-10.0 170.0)
  end
  begin
     id 20
     name lwrist
     direction 0.999998 7.53149e-005 -0.00194706   
     length 1.97106   
     axis 4.65056e-015 90 90   XYZ
    dof ry
    limits (-180.0 0.0)
 end
  begin
     id 21 
     name lhand
     direction 1 -4.48973e-011 -1.31746e-026   
     length 1.17917   
     axis 8.4065e-015 90 90   XYZ
    dof rx rz
    limits (-90.0 90.0)
           (-45.0 45.0)
  end
  begin
     id 22 
     name lfingers
     direction 1 -4.49107e-011 -2.63492e-026   
     length 0.950679   
     axis 1.6813e-014 90 90   XYZ
    dof rx
    limits (0.0 90.0)
  end
  begin
     id 23
     name lthumb
     direction 0.707107 -6.35048e-011 0.707107   
     length 1.36499   
     axis -90 45 2.85299e-015   XYZ
    dof rx rz
    limits (-45.0 45.0)
           (-45.0 45.0)
  end
  begin
     id 24 
     name rclavicle
     direction -0.996699 0.0642895 -0.0495725   
     length 4.62611  
     axis 0 0 0   XYZ 
    dof ry rz
    limits (-10.0 20.0)
           (-20.0 0.0)
  end
  begin
     id 25 
     name rhumerus
     direction -1 -4.48919e-011 -2.41059e-027  
     length 5.4981   
     axis 180 30 90   XYZ
    dof rx ry rz
    limits (-90.0 60.0)
           (-90.0 90.0)
           (-90.0 90.0)
  end
  begin
     id 26 
     name rradius
     direction -0.999999 0.00118101 -0.000681858   
     length 3.48381   
     axis 180 30 90   XYZ
    dof rx
    limits (-10.0 170.0)
  end
  begin
     id 27 
     name rwrist
     direction -0.999999 0.000321823 -0.00132288   
     length 1.7419   
     axis 4.65056e-015 -90 -90   XYZ
    dof ry
    limits (-180.0 0.0)
  end
  begin
     id 28
     name rhand
     direction -1 -4.49022e-011 -1.31746e-026   
     length 1.34932   
     axis 8.4065e-015 -90 -90   XYZ
    dof rx rz
    limits (-90.0 90.0)
           (-45.0 45.0)
  end
  begin
     id 29
     name rfingers
     direction -1 -4.49178e-011 -2.63492e-026   
     length 1.08785   
     axis 1.6813e-014 -90 -90   XYZ
    dof rx
    limits (0.0 90.0)
  end
  begin
     id 30
     name rthumb
     direction -0.707107 -6.34713e-011 0.707107   
     length 1.56195   
     axis -90 -45 -2.85299e-015   XYZ
    dof rx rz
    limits (-45.0 45.0)
           (-45.0 45.0)
  end
:hierarchy
  begin
    root lhipjoint rhipjoint lowerback
    lhipjoint lfemur
    lfemur ltibia
    ltibia lfoot
    lfoot ltoes
    rhipjoint rfemur
    rfemur rtibia
    rtibia rfoot
    rfoot rtoes
    lowerback upperback
    upperback thorax
    thorax lowerneck lclavicle rclavicle
    lowerneck upperneck
    upperneck head
    lclavicle lhumerus
    lhumerus lradius
    lradius lwrist
    lwrist lhand lthumb
    lhand lfingers
    rclavicle rhumerus
    rhumerus rradius
    rradius rwrist
    rwrist rhand rthumb
    rhand rfingers
  end

#!OML:ASF X:\für Bonn\!DataBase\2005_08_10_Bjorn_Final\c3d\bjorn.ASF
:FULLY-SPECIFIED
:DEGREES
1
root 3.29747 18.746 12.5603 -366.294 -130.598 -720.542
lowerback 11.6085 2.96746 -1.44021
upperback 16.968 1.71545 -0.992957
thorax 11.9797 -0.167781 -0.506039
lowerneck -2.22064 1.13504 -1.22941
upperneck 22.5177 0.982815 -1.8905
head 7.24909 -0.162434 -0.388265
rclavicle -1.05157e-013 5.68524e-014
rhumerus -194.568 -169.463 87.9577
rradius 39.3902
rwrist 9.90524
rhand -12.9159 9.40427
rfingers 7.12502
rthumb 13.1742 -20.1595
lclavicle -1.05157e-013 5.68524e-014
lhumerus -22.2235 8.86739 77.642
lradius 20.4577
lwrist -25.8053
lhand -17.3811 -364.653
lfingers 7.12502
lthumb 8.86755 25.1404
rfemur 5.94249 20.8866 20.1299
rtibia 30.5637
rfoot 6.09851 39.0678
rtoes 33.6788
lfemur 168.209 197.311 173.599
ltibia 20.6464
lfoot -2.68018 -18.9145
ltoes -18.4823
2
root 3.22072 18.7368 12.6064 -366.265 -131.633 -720.731
lowerback 12.0242 3.0651 -1.92529
upperback 17.1056 1.73817 -1.12603
thorax 11.8974 -0.238557 -0.398471
lowerneck -2.44577 1.22822 -1.40227
upperneck 22.5079 1.10793 -1.75813
head 7.28461 -0.106648 -0.30691
rclavicle 8.22969e-014 -7.23576e-014
rhumerus -194.661 -169.016 88.097
rradius 39.3228
rwrist 9.98484
rhand -13.0919 9.52704
rfingers 7.12502
rthumb 13.0046 -20.0476
lclavicle 8.22969e-014 -7.23576e-014
lhumerus -22.0863 8.83773 77.4757
lradius 20.588
lwrist -25.1843
lhand -17.7467 -364.218
lfingers 7.12502
lthumb 8.51477 25.5901
rfemur 5.78748 21.0667 19.7087
rtibia 31.1668
rfoot 6.21296 38.882
rtoes 33.7655
lfemur 168.541 196.393 173.181
ltibia 20.9792
lfoot -3.05275 -18.8584
ltoes -19.1521
3
root 3.14386 18.7288 12.6537 -366.262 -132.627 -720.883
lowerback 12.4214 3.17208 -2.34611
upperback 17.2611 1.76854 -1.2749
thorax 11.8531 -0.298929 -0.344915
lowerneck -2.72317 1.28937 -1.51185
upperneck 22.5049 1.18283 -1.59564
head 7.33132 -0.065835 -0.229369
rclavicle -1.55052e-014 -5.1684e-015
rhumerus -194.709 -168.472 88.1822
rradius 39.2201
rwrist 10.0641
rhand -13.3663 9.71163
rfingers 7.12502
rthumb 12.74 -19.8797
lclavicle -1.55052e-014 -5.1684e-015
lhumerus -21.8741 8.6323 77.2964
lradius 20.6794
lwrist -24.6541
lhand -18.2416 -363.808
lfingers 7.12502
lthumb 8.03721 26.0193
rfemur 5.58815 21.2152 19.3157
rtibia 31.8438
rfoot 6.18251 38.6365
rtoes 33.6843
lfemur 168.846 195.497 172.785
ltibia 21.3616
lfoot -3.87491 -18.7245
ltoes -21.477
4
root 3.06882 18.7219 12.7009 -366.275 -133.605 -721.005
lowerback 12.8573 3.28578 -2.75095
upperback 17.3807 1.80686 -1.42279
thorax 11.744 -0.35086 -0.299077
lowerneck -2.89228 1.34553 -1.55741
upperneck 22.4609 1.24938 -1.48366
head 7.34578 -0.0275543 -0.179783
rclavicle 5.24792e-014 -5.12864e-014
rhumerus -194.861 -167.997 88.293
rradius 39.184
rwrist 10.0827
rhand -13.6804 9.84223
rfingers 7.12502
rthumb 12.4372 -19.7677
lclavicle 5.24792e-014 -5.12864e-014
lhumerus -21.6289 8.60867 77.0438
lradius 20.6238
lwrist -24.4744
lhand -18.821 -363.619
lfingers 7.12502
lthumb 7.47791 26.229
rfemur 5.3293 21.3676 18.9613
rtibia 32.6199
rfoot 5.89527 38.305
rtoes 33.3366
lfemur 169.12 194.758 172.432
ltibia 21.7349
lfoot -4.32356 -18.3965
ltoes -22.3199
5
root 2.99615 18.7161 12.7484 -366.307 -134.557 -721.097
lowerback 13.2919 3.39153 -3.15479
upperback 17.5083 1.82484 -1.55253
thorax 11.647 -0.416005 -0.234276
lowerneck -3.0447 1.41181 -1.65318
upperneck 22.3788 1.33411 -1.3577
head 7.3442 0.0179641 -0.115638
rclavicle -8.74653e-015 1.98785e-014
rhumerus -195.027 -167.562 88.4277
rradius 39.1752
rwrist 10.067
rhand -13.9414 10.0218
rfingers 7.12502
rthumb 12.1856 -19.6033
lclavicle -8.74653e-015 1.98785e-014
lhumerus -21.2867 8.7867 76.7762
lradius 20.4552
lwrist -24.5195
lhand -19.4065 -363.599
lfingers 7.12502
lthumb 6.91278 26.2686
rfemur 5.00087 21.4572 18.6233
rtibia 33.4964
rfoot 5.56672 37.8894
rtoes 32.8025
lfemur 169.401 194.191 172.129
ltibia 22.0587
lfoot -4.30207 -17.9255
ltoes -21.1212
6
root 2.92392 18.714 12.7976 -366.357 -135.483 -721.136
lowerback 13.7134 3.48815 -3.5033
upperback 17.6432 1.82732 -1.68201
thorax 11.5708 -0.483593 -0.199785
lowerneck -3.24932 1.48894 -1.64554
upperneck 22.3266 1.4429 -1.31943
head 7.36302 0.0755228 -0.095657
rclavicle 3.93594e-014 -2.62396e-014
rhumerus -195.195 -167.149 88.5676
rradius 39.1963
rwrist 10.0307
rhand -14.1824 10.0815
rfingers 7.12502
rthumb 11.9532 -19.5572
lclavicle 3.93594e-014 -2.62396e-014
lhumerus -20.7951 9.09183 76.4862
lradius 20.1534
lwrist -24.6921
lhand -20.0133 -363.644
lfingers 7.12502
lthumb 6.32697 26.2418
rfemur 4.5829 21.4722 18.3068
rtibia 34.4816
rfoot 5.17642 37.3553
rtoes 31.9844
lfemur 169.707 193.801 171.879
ltibia 22.3158
lfoot -4.30302 -17.3869
ltoes -19.8765
7
root 2.85361 18.7158 12.8457 -366.387 -136.398 -721.175
lowerback 14.1078 3.58826 -3.83288
upperback 17.792 1.82984 -1.83069
thorax 11.5304 -0.549915 -0.197718
lowerneck -3.47228 1.56133 -1.61658
upperneck 22.238 1.54709 -1.27638
head 7.3732 0.135241 -0.077533
rclavicle 6.48038e-014 1.35174e-014
rhumerus -195.359 -166.793 88.6846
rradius 39.2755
rwrist 9.94657
rhand -14.402 9.87429
rfingers 7.12502
rthumb 11.7414 -19.7766
lclavicle 6.48038e-014 1.35174e-014
lhumerus -20.1692 9.18519 76.2311
lradius 19.8186
lwrist -24.726
lhand -20.5743 -363.467
lfingers 7.12502
lthumb 5.78538 26.434
rfemur 4.08403 21.4224 17.9814
rtibia 35.5561
rfoot 4.7161 36.7253
rtoes 30.8377
lfemur 170.028 193.408 171.642
ltibia 22.5118
lfoot -4.47995 -16.911
ltoes -19.4059
8
root 2.78515 18.7225 12.8952 -366.419 -137.301 -721.19
lowerback 14.4901 3.67874 -4.14507
upperback 17.9515 1.81325 -1.97929
thorax 11.513 -0.626112 -0.205341
lowerneck -3.69308 1.64653 -1.53276
upperneck 22.1269 1.67804 -1.303
head 7.3768 0.207086 -0.0892201
rclavicle -4.33351e-014 6.20208e-014
rhumerus -195.522 -166.495 88.7928
rradius 39.3674
rwrist 9.88304
rhand -14.6053 9.60506
rfingers 7.12502
rthumb 11.5454 -20.0569
lclavicle -4.33351e-014 6.20208e-014
lhumerus -19.4524 9.45017 75.9565
lradius 19.4029
lwrist -24.9531
lhand -21.1376 -363.352
lfingers 7.12502
lthumb 5.24145 26.5633
rfemur 3.53424 21.3693 17.6889
rtibia 36.7015
rfoot 4.06772 35.9504
rtoes 29.2591
lfemur 170.342 192.944 171.437
ltibia 22.6654
lfoot -4.55627 -16.5342
ltoes -18.7214
9
root 2.71796 18.7312 12.9437 -366.455 -138.197 -721.189
lowerback 14.8407 3.77567 -4.46224
upperback 18.1148 1.80149 -2.10688
thorax 11.5186 -0.70339 -0.18778
lowerneck -3.83854 1.72169 -1.43935
upperneck 21.9461 1.80683 -1.39918
head 7.34512 0.274694 -0.125446
rclavicle -2.14687e-014 -1.35174e-014
rhumerus -195.721 -166.218 88.9455
rradius 39.4768
rwrist 9.81285
rhand -14.8471 9.43824
rfingers 7.12502
rthumb 11.3122 -20.2367
lclavicle -2.14687e-014 -1.35174e-014
lhumerus -18.6275 9.94717 75.6656
lradius 18.8518
lwrist -25.4424
lhand -21.6696 -363.449
lfingers 7.12502
lthumb 4.7278 26.4778
rfemur 2.95598 21.2726 17.408
rtibia 37.8817
rfoot 3.54782 35.0387
rtoes 27.6057
lfemur 170.663 192.413 171.256
ltibia 22.787
lfoot -4.59683 -16.2435
ltoes -18.0929
10
root 2.6525 18.7439 12.993 -366.461 -139.108 -721.195
lowerback 15.1774 3.88764 -4.73361
upperback 18.2631 1.81442 -2.26066
thorax 11.5161 -0.759553 -0.225267
lowerneck -3.88879 1.78782 -1.324
upperneck 21.7062 1.91283 -1.46879
head 7.27722 0.337116 -0.158743
rclavicle 4.6118e-014 -2.38542e-014
rhumerus -195.983 -165.926 89.073
rradius 39.5881
rwrist 9.75187
rhand -15.1638 9.39564
rfingers 7.12502
rthumb 11.0068 -20.2958
lclavicle 4.6118e-014 -2.38542e-014
lhumerus -17.7128 10.437 75.3447
lradius 18.2122
lwrist -26.0329
lhand -22.1832 -363.609
lfingers 7.12502
lthumb 4.23183 26.329
rfemur 2.32572 21.0627 17.1067
rtibia 39.078
rfoot 2.97907 34.0072
rtoes 25.4614
lfemur 170.966 191.842 171.081
ltibia 22.8828
lfoot -4.65732 -15.9609
ltoes -17.5469
11
root 2.58881 18.7569 13.042 -366.476 -139.979 -721.178
lowerback 15.4858 3.99923 -5.00527
upperback 18.4292 1.82107 -2.36651
thorax 11.5513 -0.825161 -0.210868
lowerneck -3.89748 1.83497 -1.39834
upperneck 21.4488 1.99353 -1.44598
head 7.19367 0.380659 -0.132171
rclavicle -3.73715e-014 -4.29375e-014
rhumerus -196.248 -165.643 89.2741
rradius 39.7174
rwrist 9.70474
rhand -15.455 9.41853
rfingers 7.12502
rthumb 10.7259 -20.2877
lclavicle -3.73715e-014 -4.29375e-014
lhumerus -16.7468 11.2838 75.0501
lradius 17.521
lwrist -27.0369
lhand -22.5958 -363.968
lfingers 7.12502
lthumb 3.83342 25.9768
rfemur 1.70513 20.6942 16.8244
rtibia 40.2763
rfoot 2.26771 32.8922
rtoes 22.8649
lfemur 171.253 191.209 170.931
ltibia 22.9378
lfoot -4.69209 -15.7917
ltoes -17.263
